# xmcd CD database file
#
# Track frame offsets:
#	150
#	40414
#	58349
#	92485
#	121950
#	154230
#	187383
#	215852
#	241934
#	274792
#
# Disc length: 4035 seconds
#
# Revision: 0
# Processed by: cddbd v1.5PL3 Copyright (c) Steve Scherf et al.
# Submitted via: CDex 1.51
#
DISCID=9a0fc10a
DTITLE=Matthew Von Doran - In This Present Moment
DYEAR=2004
DGENRE=Jazz
TTITLE0=Balance
TTITLE1=Critical Mass
TTITLE2=Swang
TTITLE3=Measure Once
TTITLE4=Z
TTITLE5=Trick
TTITLE6=Vanity Strikes
TTITLE7=Cable
TTITLE8=Ex Nihilo
TTITLE9=Somewhere Before
EXTD=YEAR: 2004
EXTT0=
EXTT1=
EXTT2=
EXTT3=
EXTT4=
EXTT5=
EXTT6=
EXTT7=
EXTT8=
EXTT9=
PLAYORDER=
